:SAMPLES-PER-SECOND 30
:FULLY-SPECIFIED
:DEGREES
424
root  11.8874 39.2065 13.4022 178.478 -67.1405 178.201
RightUpLeg  10.1622 -5.98138 -11.2528
RightLeg  16.7192 7.18955 1.58261
RightFoot  -16.9701 0.0891415 4.02156
RightToes  0.000482159 0.542163 -0.142577
Spine  15.1555 -5.01542 -6.80544
Spine1  8.57743 -8.34954 8.57496
HEad  0.46656 14.6331 -5.56961
LeftShoulder1  8.58859 -15.4372 -39.1359
LeftArm  25.7011 -32.3559 -57.9076
LeftForeArm  8.0573 -19.8579 -5.70881
LeftHand  -0.25398 0.0180481 5.50724
RightShoulder  4.95492 9.40012 32.4571
RightArm  -10.9861 -28.4273 34.442
RightForeArm  -29.0972 70.6129 39.0093
RightHand  -2.4519 5.05146 -27.1375
LeftUpLeg  -17.5934 6.94517 6.1787
LeftLeg  -2.32166 25.0789 -6.2552
LeftFoot  -3.03969 0.0307267 -0.276999
LeftToes  1.06248e-005 4.65855e-005 -8.18498e-006
425
root  9.8813 38.8754 13.5878 -179.985 -68.1616 175.671
RightUpLeg  12.3479 -2.91792 -13.5761
RightLeg  20.0042 5.62838 1.90049
RightFoot  -17.0582 0.360313 9.70668
RightToes  0.000482159 0.542163 -0.142577
Spine  15.1342 -5.28522 -8.6059
Spine1  8.75903 -8.93384 8.828
HEad  1.20122 14.1849 -5.31695
LeftShoulder1  8.73384 -15.4745 -39.7774
LeftArm  25.1156 -32.7038 -58.2915
LeftForeArm  9.10063 -18.7576 -6.30742
LeftHand  -0.25398 0.0180481 5.50724
RightShoulder  4.88288 9.2107 32.4631
RightArm  -10.7375 -28.2639 33.3611
RightForeArm  -29.8295 70.7276 39.3531
RightHand  -2.34136 4.46964 -27.408
LeftUpLeg  -18.8057 8.68764 3.43723
LeftLeg  4.86464 23.658 -4.06753
LeftFoot  1.80639 -0.240699 1.96891
LeftToes  1.06248e-005 4.65855e-005 -8.18498e-006
426
root  7.89648 38.5807 13.7993 -178.075 -69.4805 172.687
RightUpLeg  12.4091 -0.0160821 -15.3377
RightLeg  26.9539 2.96251 1.3487
RightFoot  -13.4826 0.173508 15.2536
RightToes  0.000482159 0.542163 -0.142577
Spine  15.5799 -5.34749 -10.4946
Spine1  8.45675 -9.58815 9.85314
HEad  1.84414 13.2728 -5.0197
LeftShoulder1  9.04181 -15.6652 -40.8624
LeftArm  23.786 -33.2637 -58.7869
LeftForeArm  11.3147 -16.9139 -7.36319
LeftHand  -0.25398 0.0180481 5.50724
RightShoulder  4.78118 8.92246 32.5352
RightArm  -10.9617 -28.024 32.4222
RightForeArm  -31.9828 70.3721 38.5224
RightHand  -2.53056 4.94544 -28.2274
LeftUpLeg  -20.4988 17.3561 -2.34605
LeftLeg  12.8149 11.6208 -0.519281
LeftFoot  6.06829 -0.601008 3.70986
LeftToes  1.06248e-005 4.65855e-005 -8.18498e-006
427
root  6.01489 38.4977 14.0256 -175.232 -69.9906 168.733
RightUpLeg  8.9954 2.99238 -16.4766
RightLeg  37.7919 -1.28961 -1.39916
RightFoot  -3.30525 -0.976759 14.6803
RightToes  0.000482159 0.542163 -0.142577
Spine  16.5006 -5.06527 -12.3319
Spine1  8.13047 -9.76088 10.3579
HEad  2.24354 12.2387 -4.70676
LeftShoulder1  9.27944 -15.8884 -41.5031
LeftArm  22.0961 -33.9783 -59.485
LeftForeArm  14.0526 -14.844 -8.51994
LeftHand  -0.25398 0.0180481 5.50724
RightShoulder  4.72387 8.78212 32.5085
RightArm  -11.9183 -27.6744 32.1845
RightForeArm  -34.9686 69.5205 36.5774
RightHand  -2.73801 5.60964 -28.6954
LeftUpLeg  -20.9676 23.0158 -7.28257
LeftLeg  18.2634 3.59645 1.85797
LeftFoot  5.28461 -0.808793 5.35536
LeftToes  1.06248e-005 4.65855e-005 -8.18498e-006
428
root  4.29894 38.5344 14.2372 -171.826 -69.2741 164.331
RightUpLeg  2.75671 6.41159 -17.219
RightLeg  49.4622 -2.70715 -3.5834
RightFoot  9.35551 -1.47987 8.41669
RightToes  0.000482159 0.542163 -0.142577
Spine  17.5417 -4.5327 -14.1619
Spine1  8.17243 -9.51132 9.68019
HEad  2.2603 11.7751 -4.9993
LeftShoulder1  9.30751 -15.9813 -41.4229
LeftArm  21.3614 -34.7176 -60.144
LeftForeArm  15.7304 -13.5467 -9.21006
LeftHand  -0.25398 0.0180481 5.50724
RightShoulder  4.74959 8.87682 32.422
RightArm  -12.8431 -26.9725 32.1664
RightForeArm  -37.6021 68.4836 34.4351
RightHand  -2.62381 5.31317 -28.2648
LeftUpLeg  -19.075 21.5787 -8.79844
LeftLeg  21.8679 5.92141 2.96991
LeftFoot  1.03057 -0.76116 6.95376
LeftToes  1.06248e-005 4.65855e-005 -8.18498e-006
429
root  2.65963 38.6123 14.4319 -170.261 -68.2544 162.017
RightUpLeg  -3.90195 9.00549 -17.2338
RightLeg  58.5341 -0.470755 -1.24969
RightFoot  15.4218 -0.809622 3.72133
RightToes  0.000482159 0.542163 -0.142577
Spine  18.3719 -4.17345 -15.0623
Spine1  8.30431 -9.36902 8.91922
HEad  2.08065 12.1025 -6.20454
LeftShoulder1  9.23167 -15.9208 -41.1967
LeftArm  21.7665 -35.3664 -60.4321
LeftForeArm  16.0887 -13.2922 -9.37829
LeftHand  -0.25398 0.0180481 5.50724
RightShoulder  4.82524 9.05745 32.4724
RightArm  -13.036 -25.6042 31.6947
RightForeArm  -39.7314 67.4121 32.4647
RightHand  -2.33877 4.44581 -27.4475
LeftUpLeg  -16.5025 21.56 -9.97878
LeftLeg  23.6611 7.2978 3.82558
LeftFoot  -2.85527 -0.557908 7.70633
LeftToes  1.06248e-005 4.65855e-005 -8.18498e-006
430
root  0.992935 38.9382 14.6279 -171.067 -68.1483 162.452
RightUpLeg  -9.4027 9.26116 -16.0825
RightLeg  63.1951 1.33317 2.22886
RightFoot  14.292 -0.587541 3.0503
RightToes  0.000482159 0.542163 -0.142577
Spine  19.0785 -4.40721 -14.601
Spine1  8.23606 -9.65876 9.11249
HEad  2.12919 12.6503 -7.64021
LeftShoulder1  9.2127 -15.8485 -41.2718
LeftArm  21.9935 -35.906 -60.423
LeftForeArm  16.3143 -13.2411 -9.41759
LeftHand  -0.25398 0.0180481 5.50724
RightShoulder  4.89295 9.1752 32.6499
RightArm  -12.8659 -23.7473 30.9474
RightForeArm  -41.7414 66.2792 30.6062
RightHand  -2.19828 4.02297 -26.9712
LeftUpLeg  -12.6641 22.2236 -9.96003
LeftLeg  22.4552 6.85306 3.47138
LeftFoot  -4.68241 -0.414679 7.59124
LeftToes  1.06248e-005 4.65855e-005 -8.18498e-006
431
root  -0.644676 39.3285 14.77 -172.33 -68.7094 163.701
RightUpLeg  -13.8973 7.32586 -14.3285
RightLeg  63.5461 1.11851 1.89781
RightFoot  10.8721 -0.950594 5.22525
RightToes  0.000482159 0.542163 -0.142577
Spine  19.6179 -4.83995 -13.909
Spine1  8.04279 -10.1911 9.8048
HEad  2.69465 12.7721 -8.32044
LeftShoulder1  9.24804 -15.8769 -41.3771
LeftArm  21.1805 -36.362 -60.5591
LeftForeArm  17.1224 -12.6683 -9.63674
LeftHand  -0.25398 0.0180481 5.50724
RightShoulder  4.91852 9.21562 32.7283
RightArm  -13.0185 -22.1139 30.4281
RightForeArm  -43.3527 65.3382 29.2088
RightHand  -2.16975 3.94675 -26.84
LeftUpLeg  -8.62366 22.6277 -9.23465
LeftLeg  20.3601 6.20085 2.55723
LeftFoot  -6.18675 -0.282173 7.08688
LeftToes  1.06248e-005 4.65855e-005 -8.18498e-006
